<?xml version="1.0" encoding="UTF-8" standalone="no"?><svg xmlns="http://www.w3.org/2000/svg" xmlns:xlink="http://www.w3.org/1999/xlink" contentScriptType="application/ecmascript" contentStyleType="text/css" height="2394px" preserveAspectRatio="none" style="width:781px;height:2394px;background:#FFFFFF;" version="1.1" viewBox="0 0 781 2394" width="781px" zoomAndPan="magnify"><defs><filter height="300%" id="fqjta8b3mtm8y" width="300%" x="-1" y="-1"><feGaussianBlur result="blurOut" stdDeviation="2.0"/><feColorMatrix in="blurOut" result="blurOut2" type="matrix" values="0 0 0 0 0 0 0 0 0 0 0 0 0 0 0 0 0 0 .4 0"/><feOffset dx="4.0" dy="4.0" in="blurOut2" result="blurOut3"/><feBlend in="SourceGraphic" in2="blurOut3" mode="normal"/></filter></defs><g><rect fill="#FEFECE" filter="url(#fqjta8b3mtm8y)" height="36.4883" rx="12.5" ry="12.5" style="stroke:#A80036;stroke-width:1.5;" width="42" x="10" y="1178.0098"/><text fill="#000000" font-family="sans-serif" font-size="14" lengthAdjust="spacing" textLength="22" x="20" y="1201.5449">JPA</text><rect fill="#FEFECE" filter="url(#fqjta8b3mtm8y)" height="36.4883" rx="12.5" ry="12.5" style="stroke:#A80036;stroke-width:1.5;" width="154" x="102" y="20"/><text fill="#000000" font-family="sans-serif" font-size="14" lengthAdjust="spacing" textLength="134" x="112" y="43.5352">@PresistentContext</text><path d="M52,1196.2539 L62,1196.2539 C77,1196.2539 77,38.2441 92,38.2441 L102,38.2441 " fill="none" style="stroke:#A80036;stroke-width:1.0;"/><rect fill="#FEFECE" filter="url(#fqjta8b3mtm8y)" height="36.4883" rx="12.5" ry="12.5" style="stroke:#A80036;stroke-width:1.5;" width="139" x="102" y="556.6387"/><text fill="#000000" font-family="sans-serif" font-size="14" lengthAdjust="spacing" textLength="119" x="112" y="580.1738">Entity Annotation</text><rect fill="#FEFECE" filter="url(#fqjta8b3mtm8y)" height="36.4883" rx="12.5" ry="12.5" style="stroke:#A80036;stroke-width:1.5;" width="70" x="291" y="76.4883"/><text fill="#000000" font-family="sans-serif" font-size="14" lengthAdjust="spacing" textLength="50" x="301" y="100.0234">@Entity</text><path d="M241,574.8828 L251,574.8828 C266,574.8828 266,94.7324 281,94.7324 L291,94.7324 " fill="none" style="stroke:#A80036;stroke-width:1.0;"/><rect fill="#FEFECE" filter="url(#fqjta8b3mtm8y)" height="36.4883" rx="12.5" ry="12.5" style="stroke:#A80036;stroke-width:1.5;" width="70" x="291" y="132.9766"/><text fill="#000000" font-family="sans-serif" font-size="14" lengthAdjust="spacing" textLength="50" x="301" y="156.5117">@Table</text><path d="M241,574.8828 L251,574.8828 C266,574.8828 266,151.2207 281,151.2207 L291,151.2207 " fill="none" style="stroke:#A80036;stroke-width:1.0;"/><rect fill="#FEFECE" filter="url(#fqjta8b3mtm8y)" height="36.4883" rx="12.5" ry="12.5" style="stroke:#A80036;stroke-width:1.5;" width="45" x="291" y="189.4648"/><text fill="#000000" font-family="sans-serif" font-size="14" lengthAdjust="spacing" textLength="25" x="301" y="213">@Id</text><path d="M241,574.8828 L251,574.8828 C266,574.8828 266,207.709 281,207.709 L291,207.709 " fill="none" style="stroke:#A80036;stroke-width:1.0;"/><rect fill="#FEFECE" filter="url(#fqjta8b3mtm8y)" height="36.4883" rx="12.5" ry="12.5" style="stroke:#A80036;stroke-width:1.5;" width="141" x="291" y="245.9531"/><text fill="#000000" font-family="sans-serif" font-size="14" lengthAdjust="spacing" textLength="121" x="301" y="269.4883">@GeneratedValue</text><path d="M241,574.8828 L251,574.8828 C266,574.8828 266,264.1973 281,264.1973 L291,264.1973 " fill="none" style="stroke:#A80036;stroke-width:1.0;"/><rect fill="#FEFECE" filter="url(#fqjta8b3mtm8y)" height="36.4883" rx="12.5" ry="12.5" style="stroke:#A80036;stroke-width:1.5;" width="86" x="291" y="302.4414"/><text fill="#000000" font-family="sans-serif" font-size="14" lengthAdjust="spacing" textLength="66" x="301" y="325.9766">@Column</text><path d="M241,574.8828 L251,574.8828 C266,574.8828 266,320.6855 281,320.6855 L291,320.6855 " fill="none" style="stroke:#A80036;stroke-width:1.0;"/><rect fill="#FEFECE" filter="url(#fqjta8b3mtm8y)" height="36.4883" rx="12.5" ry="12.5" style="stroke:#A80036;stroke-width:1.5;" width="57" x="291" y="358.9297"/><text fill="#000000" font-family="sans-serif" font-size="14" lengthAdjust="spacing" textLength="37" x="301" y="382.4648">@Lob</text><path d="M241,574.8828 L251,574.8828 C266,574.8828 266,377.1738 281,377.1738 L291,377.1738 " fill="none" style="stroke:#A80036;stroke-width:1.0;"/><rect fill="#FEFECE" filter="url(#fqjta8b3mtm8y)" height="36.4883" rx="12.5" ry="12.5" style="stroke:#A80036;stroke-width:1.5;" width="97" x="291" y="415.418"/><text fill="#000000" font-family="sans-serif" font-size="14" lengthAdjust="spacing" textLength="77" x="301" y="438.9531">@Transient</text><path d="M241,574.8828 L251,574.8828 C266,574.8828 266,433.6621 281,433.6621 L291,433.6621 " fill="none" style="stroke:#A80036;stroke-width:1.0;"/><rect fill="#FEFECE" filter="url(#fqjta8b3mtm8y)" height="36.4883" rx="12.5" ry="12.5" style="stroke:#A80036;stroke-width:1.5;" width="98" x="291" y="471.9063"/><text fill="#000000" font-family="sans-serif" font-size="14" lengthAdjust="spacing" textLength="78" x="301" y="495.4414">@Temporal</text><path d="M241,574.8828 L251,574.8828 C266,574.8828 266,490.1504 281,490.1504 L291,490.1504 " fill="none" style="stroke:#A80036;stroke-width:1.0;"/><rect fill="#FEFECE" filter="url(#fqjta8b3mtm8y)" height="36.4883" rx="12.5" ry="12.5" style="stroke:#A80036;stroke-width:1.5;" width="115" x="291" y="528.3945"/><text fill="#000000" font-family="sans-serif" font-size="14" lengthAdjust="spacing" textLength="95" x="301" y="551.9297">@Enumerated</text><path d="M241,574.8828 L251,574.8828 C266,574.8828 266,546.6387 281,546.6387 L291,546.6387 " fill="none" style="stroke:#A80036;stroke-width:1.0;"/><rect fill="#FEFECE" filter="url(#fqjta8b3mtm8y)" height="36.4883" rx="12.5" ry="12.5" style="stroke:#A80036;stroke-width:1.5;" width="114" x="291" y="584.8828"/><text fill="#000000" font-family="sans-serif" font-size="14" lengthAdjust="spacing" textLength="94" x="301" y="608.418">@OneToMany</text><path d="M241,574.8828 L251,574.8828 C266,574.8828 266,603.127 281,603.127 L291,603.127 " fill="none" style="stroke:#A80036;stroke-width:1.0;"/><rect fill="#FEFECE" filter="url(#fqjta8b3mtm8y)" height="36.4883" rx="12.5" ry="12.5" style="stroke:#A80036;stroke-width:1.5;" width="114" x="291" y="641.3711"/><text fill="#000000" font-family="sans-serif" font-size="14" lengthAdjust="spacing" textLength="94" x="301" y="664.9063">@ManyToOne</text><rect fill="#FEFECE" filter="url(#fqjta8b3mtm8y)" height="36.4883" rx="12.5" ry="12.5" style="stroke:#A80036;stroke-width:1.5;" width="129" x="455" y="641.3711"/><text fill="#000000" font-family="sans-serif" font-size="14" lengthAdjust="spacing" textLength="109" x="465" y="664.9063">@JoinedColumn</text><path d="M405,659.6152 L415,659.6152 C430,659.6152 430,659.6152 445,659.6152 L455,659.6152 " fill="none" style="stroke:#A80036;stroke-width:1.0;"/><path d="M241,574.8828 L251,574.8828 C266,574.8828 266,659.6152 281,659.6152 L291,659.6152 " fill="none" style="stroke:#A80036;stroke-width:1.0;"/><rect fill="#FEFECE" filter="url(#fqjta8b3mtm8y)" height="36.4883" rx="12.5" ry="12.5" style="stroke:#A80036;stroke-width:1.5;" width="106" x="291" y="697.8594"/><text fill="#000000" font-family="sans-serif" font-size="14" lengthAdjust="spacing" textLength="86" x="301" y="721.3945">@OneToOne</text><path d="M241,574.8828 L251,574.8828 C266,574.8828 266,716.1035 281,716.1035 L291,716.1035 " fill="none" style="stroke:#A80036;stroke-width:1.0;"/><rect fill="#FEFECE" filter="url(#fqjta8b3mtm8y)" height="36.4883" rx="12.5" ry="12.5" style="stroke:#A80036;stroke-width:1.5;" width="87" x="291" y="754.3477"/><text fill="#000000" font-family="sans-serif" font-size="14" lengthAdjust="spacing" textLength="67" x="301" y="777.8828">@OrderBy</text><path d="M241,574.8828 L251,574.8828 C266,574.8828 266,772.5918 281,772.5918 L291,772.5918 " fill="none" style="stroke:#A80036;stroke-width:1.0;"/><rect fill="#FEFECE" filter="url(#fqjta8b3mtm8y)" height="36.4883" rx="12.5" ry="12.5" style="stroke:#A80036;stroke-width:1.5;" width="121" x="291" y="810.8359"/><text fill="#000000" font-family="sans-serif" font-size="14" lengthAdjust="spacing" textLength="101" x="301" y="834.3711">@NamedQuery</text><path d="M241,574.8828 L251,574.8828 C266,574.8828 266,829.0801 281,829.0801 L291,829.0801 " fill="none" style="stroke:#A80036;stroke-width:1.0;"/><rect fill="#FEFECE" filter="url(#fqjta8b3mtm8y)" height="36.4883" rx="12.5" ry="12.5" style="stroke:#A80036;stroke-width:1.5;" width="163" x="291" y="867.3242"/><text fill="#000000" font-family="sans-serif" font-size="14" lengthAdjust="spacing" textLength="143" x="301" y="890.8594">@NamedNativeQuery</text><path d="M241,574.8828 L251,574.8828 C266,574.8828 266,885.5684 281,885.5684 L291,885.5684 " fill="none" style="stroke:#A80036;stroke-width:1.0;"/><rect fill="#FEFECE" filter="url(#fqjta8b3mtm8y)" height="36.4883" rx="12.5" ry="12.5" style="stroke:#A80036;stroke-width:1.5;" width="236" x="291" y="923.8125"/><text fill="#000000" font-family="sans-serif" font-size="14" lengthAdjust="spacing" textLength="216" x="301" y="947.3477">@NamedStoredProcedureQuery</text><path d="M241,574.8828 L251,574.8828 C266,574.8828 266,942.0566 281,942.0566 L291,942.0566 " fill="none" style="stroke:#A80036;stroke-width:1.0;"/><rect fill="#FEFECE" filter="url(#fqjta8b3mtm8y)" height="36.4883" rx="12.5" ry="12.5" style="stroke:#A80036;stroke-width:1.5;" width="71" x="291" y="980.3008"/><text fill="#000000" font-family="sans-serif" font-size="14" lengthAdjust="spacing" textLength="51" x="301" y="1003.8359">@Index</text><path d="M241,574.8828 L251,574.8828 C266,574.8828 266,998.5449 281,998.5449 L291,998.5449 " fill="none" style="stroke:#A80036;stroke-width:1.0;"/><rect fill="#FEFECE" filter="url(#fqjta8b3mtm8y)" height="36.4883" rx="12.5" ry="12.5" style="stroke:#A80036;stroke-width:1.5;" width="118" x="291" y="1036.7891"/><text fill="#000000" font-family="sans-serif" font-size="14" lengthAdjust="spacing" textLength="98" x="301" y="1060.3242">@EmbeddedId</text><path d="M241,574.8828 L251,574.8828 C266,574.8828 266,1055.0332 281,1055.0332 L291,1055.0332 " fill="none" style="stroke:#A80036;stroke-width:1.0;"/><path d="M52,1196.2539 L62,1196.2539 C77,1196.2539 77,574.8828 92,574.8828 L102,574.8828 " fill="none" style="stroke:#A80036;stroke-width:1.0;"/><rect fill="#FEFECE" filter="url(#fqjta8b3mtm8y)" height="36.4883" rx="12.5" ry="12.5" style="stroke:#A80036;stroke-width:1.5;" width="125" x="102" y="1403.9629"/><text fill="#000000" font-family="sans-serif" font-size="14" lengthAdjust="spacing" textLength="105" x="112" y="1427.498">@Transactional</text><rect fill="#FEFECE" filter="url(#fqjta8b3mtm8y)" height="36.4883" rx="12.5" ry="12.5" style="stroke:#A80036;stroke-width:1.5;" width="104" x="277" y="1262.7422"/><text fill="#000000" font-family="sans-serif" font-size="14" lengthAdjust="spacing" textLength="84" x="287" y="1286.2773">Propagation</text><rect fill="#FEFECE" filter="url(#fqjta8b3mtm8y)" height="36.4883" rx="12.5" ry="12.5" style="stroke:#A80036;stroke-width:1.5;" width="93" x="431" y="1093.2773"/><text fill="#000000" font-family="sans-serif" font-size="14" lengthAdjust="spacing" textLength="69" x="441" y="1116.8125">REQUIRED</text><path d="M381,1280.9863 L391,1280.9863 C406,1280.9863 406,1111.5215 421,1111.5215 L431,1111.5215 " fill="none" style="stroke:#A80036;stroke-width:1.0;"/><rect fill="#FEFECE" filter="url(#fqjta8b3mtm8y)" height="36.4883" rx="12.5" ry="12.5" style="stroke:#A80036;stroke-width:1.5;" width="95" x="431" y="1149.7656"/><text fill="#000000" font-family="sans-serif" font-size="14" lengthAdjust="spacing" textLength="71" x="441" y="1173.3008">SUPPORTS</text><path d="M381,1280.9863 L391,1280.9863 C406,1280.9863 406,1168.0098 421,1168.0098 L431,1168.0098 " fill="none" style="stroke:#A80036;stroke-width:1.0;"/><rect fill="#FEFECE" filter="url(#fqjta8b3mtm8y)" height="36.4883" rx="12.5" ry="12.5" style="stroke:#A80036;stroke-width:1.5;" width="114" x="431" y="1206.2539"/><text fill="#000000" font-family="sans-serif" font-size="14" lengthAdjust="spacing" textLength="90" x="441" y="1229.7891">MANDATORY</text><path d="M381,1280.9863 L391,1280.9863 C406,1280.9863 406,1224.498 421,1224.498 L431,1224.498 " fill="none" style="stroke:#A80036;stroke-width:1.0;"/><rect fill="#FEFECE" filter="url(#fqjta8b3mtm8y)" height="36.4883" rx="12.5" ry="12.5" style="stroke:#A80036;stroke-width:1.5;" width="68" x="431" y="1262.7422"/><text fill="#000000" font-family="sans-serif" font-size="14" lengthAdjust="spacing" textLength="44" x="441" y="1286.2773">NEVER</text><path d="M381,1280.9863 L391,1280.9863 C406,1280.9863 406,1280.9863 421,1280.9863 L431,1280.9863 " fill="none" style="stroke:#A80036;stroke-width:1.0;"/><rect fill="#FEFECE" filter="url(#fqjta8b3mtm8y)" height="36.4883" rx="12.5" ry="12.5" style="stroke:#A80036;stroke-width:1.5;" width="142" x="431" y="1319.2305"/><text fill="#000000" font-family="sans-serif" font-size="14" lengthAdjust="spacing" textLength="118" x="441" y="1342.7656">NOT_SUPPORTED</text><path d="M381,1280.9863 L391,1280.9863 C406,1280.9863 406,1337.4746 421,1337.4746 L431,1337.4746 " fill="none" style="stroke:#A80036;stroke-width:1.0;"/><rect fill="#FEFECE" filter="url(#fqjta8b3mtm8y)" height="36.4883" rx="12.5" ry="12.5" style="stroke:#A80036;stroke-width:1.5;" width="128" x="431" y="1375.7188"/><text fill="#000000" font-family="sans-serif" font-size="14" lengthAdjust="spacing" textLength="104" x="441" y="1399.2539">REQUIRES_NEW</text><path d="M381,1280.9863 L391,1280.9863 C406,1280.9863 406,1393.9629 421,1393.9629 L431,1393.9629 " fill="none" style="stroke:#A80036;stroke-width:1.0;"/><rect fill="#FEFECE" filter="url(#fqjta8b3mtm8y)" height="36.4883" rx="12.5" ry="12.5" style="stroke:#A80036;stroke-width:1.5;" width="73" x="431" y="1432.207"/><text fill="#000000" font-family="sans-serif" font-size="14" lengthAdjust="spacing" textLength="53" x="441" y="1455.7422">NESTED</text><path d="M381,1280.9863 L391,1280.9863 C406,1280.9863 406,1450.4512 421,1450.4512 L431,1450.4512 " fill="none" style="stroke:#A80036;stroke-width:1.0;"/><path d="M227,1422.207 L237,1422.207 C252,1422.207 252,1280.9863 267,1280.9863 L277,1280.9863 " fill="none" style="stroke:#A80036;stroke-width:1.0;"/><rect fill="#FEFECE" filter="url(#fqjta8b3mtm8y)" height="36.4883" rx="12.5" ry="12.5" style="stroke:#A80036;stroke-width:1.5;" width="117" x="277" y="1601.6719"/><text fill="#000000" font-family="sans-serif" font-size="14" lengthAdjust="spacing" textLength="97" x="287" y="1625.207">Isolation Level</text><rect fill="#FEFECE" filter="url(#fqjta8b3mtm8y)" height="36.4883" rx="12.5" ry="12.5" style="stroke:#A80036;stroke-width:1.5;" width="82" x="444" y="1488.6953"/><text fill="#000000" font-family="sans-serif" font-size="14" lengthAdjust="spacing" textLength="62" x="454" y="1512.2305">DEFAULT</text><path d="M394,1619.916 L404,1619.916 C419,1619.916 419,1506.9395 434,1506.9395 L444,1506.9395 " fill="none" style="stroke:#A80036;stroke-width:1.0;"/><rect fill="#FEFECE" filter="url(#fqjta8b3mtm8y)" height="36.4883" rx="12.5" ry="12.5" style="stroke:#A80036;stroke-width:1.5;" width="169" x="444" y="1545.1836"/><text fill="#000000" font-family="sans-serif" font-size="14" lengthAdjust="spacing" textLength="149" x="454" y="1568.7188">READ_UNCOMMITTED</text><path d="M394,1619.916 L404,1619.916 C419,1619.916 419,1563.4277 434,1563.4277 L444,1563.4277 " fill="none" style="stroke:#A80036;stroke-width:1.0;"/><rect fill="#FEFECE" filter="url(#fqjta8b3mtm8y)" height="36.4883" rx="12.5" ry="12.5" style="stroke:#A80036;stroke-width:1.5;" width="149" x="444" y="1601.6719"/><text fill="#000000" font-family="sans-serif" font-size="14" lengthAdjust="spacing" textLength="129" x="454" y="1625.207">READ_COMMITTED</text><path d="M394,1619.916 L404,1619.916 C419,1619.916 419,1619.916 434,1619.916 L444,1619.916 " fill="none" style="stroke:#A80036;stroke-width:1.0;"/><rect fill="#FEFECE" filter="url(#fqjta8b3mtm8y)" height="36.4883" rx="12.5" ry="12.5" style="stroke:#A80036;stroke-width:1.5;" width="149" x="444" y="1658.1602"/><text fill="#000000" font-family="sans-serif" font-size="14" lengthAdjust="spacing" textLength="129" x="454" y="1681.6953">REPEATABLE_READ</text><path d="M394,1619.916 L404,1619.916 C419,1619.916 419,1676.4043 434,1676.4043 L444,1676.4043 " fill="none" style="stroke:#A80036;stroke-width:1.0;"/><rect fill="#FEFECE" filter="url(#fqjta8b3mtm8y)" height="36.4883" rx="12.5" ry="12.5" style="stroke:#A80036;stroke-width:1.5;" width="111" x="444" y="1714.6484"/><text fill="#000000" font-family="sans-serif" font-size="14" lengthAdjust="spacing" textLength="91" x="454" y="1738.1836">SERIALIZABLE</text><path d="M394,1619.916 L404,1619.916 C419,1619.916 419,1732.8926 434,1732.8926 L444,1732.8926 " fill="none" style="stroke:#A80036;stroke-width:1.0;"/><path d="M227,1422.207 L237,1422.207 C252,1422.207 252,1619.916 267,1619.916 L277,1619.916 " fill="none" style="stroke:#A80036;stroke-width:1.0;"/><path d="M52,1196.2539 L62,1196.2539 C77,1196.2539 77,1422.207 92,1422.207 L102,1422.207 " fill="none" style="stroke:#A80036;stroke-width:1.0;"/><rect fill="#FEFECE" filter="url(#fqjta8b3mtm8y)" height="36.4883" rx="12.5" ry="12.5" style="stroke:#A80036;stroke-width:1.5;" width="87" x="102" y="2053.5781"/><text fill="#000000" font-family="sans-serif" font-size="14" lengthAdjust="spacing" textLength="67" x="112" y="2077.1133">Hibernate</text><rect fill="#FEFECE" filter="url(#fqjta8b3mtm8y)" height="36.4883" rx="12.5" ry="12.5" style="stroke:#A80036;stroke-width:1.5;" width="122" x="239" y="2053.5781"/><text fill="#000000" font-family="sans-serif" font-size="14" lengthAdjust="spacing" textLength="102" x="249" y="2077.1133">SessionFactory</text><rect fill="#FEFECE" filter="url(#fqjta8b3mtm8y)" height="36.4883" rx="12.5" ry="12.5" style="stroke:#A80036;stroke-width:1.5;" width="72" x="411" y="1997.0898"/><text fill="#000000" font-family="sans-serif" font-size="14" lengthAdjust="spacing" textLength="52" x="421" y="2020.625">Session</text><rect fill="#FEFECE" filter="url(#fqjta8b3mtm8y)" height="36.4883" rx="12.5" ry="12.5" style="stroke:#A80036;stroke-width:1.5;" width="134" x="533" y="1771.1367"/><text fill="#000000" font-family="sans-serif" font-size="14" lengthAdjust="spacing" textLength="114" x="543" y="1794.6719">First Level Cache</text><path d="M483,2015.334 L493,2015.334 C508,2015.334 508,1789.3809 523,1789.3809 L533,1789.3809 " fill="none" style="stroke:#A80036;stroke-width:1.0;"/><rect fill="#FEFECE" filter="url(#fqjta8b3mtm8y)" height="36.4883" rx="12.5" ry="12.5" style="stroke:#A80036;stroke-width:1.5;" width="139" x="533" y="1827.625"/><text fill="#000000" font-family="sans-serif" font-size="14" lengthAdjust="spacing" textLength="115" x="543" y="1851.1602">CurrentSession()</text><path d="M483,2015.334 L493,2015.334 C508,2015.334 508,1845.8691 523,1845.8691 L533,1845.8691 " fill="none" style="stroke:#A80036;stroke-width:1.0;"/><rect fill="#FEFECE" filter="url(#fqjta8b3mtm8y)" height="36.4883" rx="12.5" ry="12.5" style="stroke:#A80036;stroke-width:1.5;" width="119" x="533" y="1884.1133"/><text fill="#000000" font-family="sans-serif" font-size="14" lengthAdjust="spacing" textLength="99" x="543" y="1907.6484">OpenSession()</text><path d="M483,2015.334 L493,2015.334 C508,2015.334 508,1902.3574 523,1902.3574 L533,1902.3574 " fill="none" style="stroke:#A80036;stroke-width:1.0;"/><rect fill="#FEFECE" filter="url(#fqjta8b3mtm8y)" height="36.4883" rx="12.5" ry="12.5" style="stroke:#A80036;stroke-width:1.5;" width="116" x="533" y="1940.6016"/><text fill="#000000" font-family="sans-serif" font-size="14" lengthAdjust="spacing" textLength="96" x="543" y="1964.1367">get() - Hits DB</text><path d="M483,2015.334 L493,2015.334 C508,2015.334 508,1958.8457 523,1958.8457 L533,1958.8457 " fill="none" style="stroke:#A80036;stroke-width:1.0;"/><rect fill="#FEFECE" filter="url(#fqjta8b3mtm8y)" height="36.4883" rx="12.5" ry="12.5" style="stroke:#A80036;stroke-width:1.5;" width="118" x="533" y="1997.0898"/><text fill="#000000" font-family="sans-serif" font-size="14" lengthAdjust="spacing" textLength="98" x="543" y="2020.625">Load() - Proxy</text><path d="M483,2015.334 L493,2015.334 C508,2015.334 508,2015.334 523,2015.334 L533,2015.334 " fill="none" style="stroke:#A80036;stroke-width:1.0;"/><rect fill="#FEFECE" filter="url(#fqjta8b3mtm8y)" height="36.4883" rx="12.5" ry="12.5" style="stroke:#A80036;stroke-width:1.5;" width="101" x="533" y="2110.0664"/><text fill="#000000" font-family="sans-serif" font-size="14" lengthAdjust="spacing" textLength="81" x="543" y="2133.6016">Transaction</text><rect fill="#FEFECE" filter="url(#fqjta8b3mtm8y)" height="36.4883" rx="12.5" ry="12.5" style="stroke:#A80036;stroke-width:1.5;" width="58" x="684" y="2053.5781"/><text fill="#000000" font-family="sans-serif" font-size="14" lengthAdjust="spacing" textLength="38" x="694" y="2077.1133">Begin</text><path d="M634,2128.3105 L644,2128.3105 C659,2128.3105 659,2071.8223 674,2071.8223 L684,2071.8223 " fill="none" style="stroke:#A80036;stroke-width:1.0;"/><rect fill="#FEFECE" filter="url(#fqjta8b3mtm8y)" height="36.4883" rx="12.5" ry="12.5" style="stroke:#A80036;stroke-width:1.5;" width="74" x="684" y="2110.0664"/><text fill="#000000" font-family="sans-serif" font-size="14" lengthAdjust="spacing" textLength="54" x="694" y="2133.6016">Commit</text><path d="M634,2128.3105 L644,2128.3105 C659,2128.3105 659,2128.3105 674,2128.3105 L684,2128.3105 " fill="none" style="stroke:#A80036;stroke-width:1.0;"/><rect fill="#FEFECE" filter="url(#fqjta8b3mtm8y)" height="36.4883" rx="12.5" ry="12.5" style="stroke:#A80036;stroke-width:1.5;" width="78" x="684" y="2166.5547"/><text fill="#000000" font-family="sans-serif" font-size="14" lengthAdjust="spacing" textLength="58" x="694" y="2190.0898">Rollback</text><path d="M634,2128.3105 L644,2128.3105 C659,2128.3105 659,2184.7988 674,2184.7988 L684,2184.7988 " fill="none" style="stroke:#A80036;stroke-width:1.0;"/><path d="M483,2015.334 L493,2015.334 C508,2015.334 508,2128.3105 523,2128.3105 L533,2128.3105 " fill="none" style="stroke:#A80036;stroke-width:1.0;"/><rect fill="#FEFECE" filter="url(#fqjta8b3mtm8y)" height="36.4883" rx="12.5" ry="12.5" style="stroke:#A80036;stroke-width:1.5;" width="71" x="533" y="2166.5547"/><text fill="#000000" font-family="sans-serif" font-size="14" lengthAdjust="spacing" textLength="51" x="543" y="2190.0898">Criteria</text><path d="M483,2015.334 L493,2015.334 C508,2015.334 508,2184.7988 523,2184.7988 L533,2184.7988 " fill="none" style="stroke:#A80036;stroke-width:1.0;"/><rect fill="#FEFECE" filter="url(#fqjta8b3mtm8y)" height="36.4883" rx="12.5" ry="12.5" style="stroke:#A80036;stroke-width:1.5;" width="61" x="533" y="2223.043"/><text fill="#000000" font-family="sans-serif" font-size="14" lengthAdjust="spacing" textLength="41" x="543" y="2246.5781">Query</text><path d="M483,2015.334 L493,2015.334 C508,2015.334 508,2241.2871 523,2241.2871 L533,2241.2871 " fill="none" style="stroke:#A80036;stroke-width:1.0;"/><path d="M361,2071.8223 L371,2071.8223 C386,2071.8223 386,2015.334 401,2015.334 L411,2015.334 " fill="none" style="stroke:#A80036;stroke-width:1.0;"/><rect fill="#FEFECE" filter="url(#fqjta8b3mtm8y)" height="36.4883" rx="12.5" ry="12.5" style="stroke:#A80036;stroke-width:1.5;" width="154" x="411" y="2279.5313"/><text fill="#000000" font-family="sans-serif" font-size="14" lengthAdjust="spacing" textLength="134" x="421" y="2303.0664">Second Level Cache</text><path d="M361,2071.8223 L371,2071.8223 C386,2071.8223 386,2297.7754 401,2297.7754 L411,2297.7754 " fill="none" style="stroke:#A80036;stroke-width:1.0;"/><rect fill="#FEFECE" filter="url(#fqjta8b3mtm8y)" height="36.4883" rx="12.5" ry="12.5" style="stroke:#A80036;stroke-width:1.5;" width="143" x="411" y="2336.0195"/><text fill="#000000" font-family="sans-serif" font-size="14" lengthAdjust="spacing" textLength="123" x="421" y="2359.5547">Muttiple Database</text><path d="M361,2071.8223 L371,2071.8223 C386,2071.8223 386,2354.2637 401,2354.2637 L411,2354.2637 " fill="none" style="stroke:#A80036;stroke-width:1.0;"/><path d="M189,2071.8223 L199,2071.8223 C214,2071.8223 214,2071.8223 229,2071.8223 L239,2071.8223 " fill="none" style="stroke:#A80036;stroke-width:1.0;"/><path d="M52,1196.2539 L62,1196.2539 C77,1196.2539 77,2071.8223 92,2071.8223 L102,2071.8223 " fill="none" style="stroke:#A80036;stroke-width:1.0;"/><!--MD5=[212e145ac1628c9f91382eb065ee9a3a]
@startmindmap
* JPA
 * @PresistentContext
 * Entity Annotation
  * @Entity
  * @Table
  * @Id
  * @GeneratedValue
  * @Column
  * @Lob
  * @Transient
  * @Temporal
  * @Enumerated
  * @OneToMany
  * @ManyToOne
   * @JoinedColumn
  * @OneToOne
  * @OrderBy
  * @NamedQuery
  * @NamedNativeQuery
  * @NamedStoredProcedureQuery
  * @Index
  * @EmbeddedId
 * @Transactional
  * Propagation
   * REQUIRED 
   * SUPPORTS 
   * MANDATORY 
   * NEVER 
   * NOT_SUPPORTED 
   * REQUIRES_NEW 
   * NESTED
  * Isolation Level
   * DEFAULT
   * READ_UNCOMMITTED
   * READ_COMMITTED
   * REPEATABLE_READ
   * SERIALIZABLE
 * Hibernate
  * SessionFactory
   * Session
    * First Level Cache
    * CurrentSession() 
    * OpenSession()
    * get() - Hits DB
    * Load() - Proxy
    * Transaction
     * Begin
     * Commit
     * Rollback
    * Criteria
    * Query
   * Second Level Cache
   * Muttiple Database
     

@endmindmap

PlantUML version 1.2021.9(Sun Jul 25 15:43:56 IST 2021)
(GPL source distribution)
Java Runtime: OpenJDK Runtime Environment
JVM: OpenJDK 64-Bit Server VM
Default Encoding: UTF-8
Language: en
Country: IN
--></g></svg>